<svg width="24" height="24" viewBox="0 0 24 24" fill="none" xmlns="http://www.w3.org/2000/svg">
<path fill-rule="evenodd" clip-rule="evenodd" d="M10.275 2.255C10.359 2.25 10.447 2.25 10.561 2.25H13.44C13.553 2.25 13.641 2.25 13.725 2.255C14.2446 2.28658 14.7445 2.46498 15.1667 2.76946C15.5889 3.07393 15.916 3.49197 16.11 3.975C16.141 4.052 16.17 4.135 16.205 4.243L16.208 4.253C16.292 4.477 16.483 4.732 16.751 4.936C16.781 4.959 16.811 4.98 16.841 5C18.994 5.003 20.118 5.042 20.893 5.673C21.053 5.803 21.198 5.948 21.327 6.107C22 6.934 22 8.159 22 10.609C22 11.231 22 11.541 21.85 11.784C21.8205 11.8314 21.787 11.8762 21.75 11.918C21.56 12.132 21.263 12.221 20.668 12.4L16 13.8V13C16 12.4696 15.7893 11.9609 15.4142 11.5858C15.0391 11.2107 14.5304 11 14 11H10C9.46957 11 8.96086 11.2107 8.58579 11.5858C8.21071 11.9609 8 12.4696 8 13V13.8L3.332 12.4C2.737 12.221 2.439 12.132 2.25 11.918C2.21299 11.8762 2.17954 11.8314 2.15 11.784C2 11.541 2 11.231 2 10.609C2 8.159 2 6.934 2.673 6.107C2.803 5.947 2.948 5.802 3.107 5.673C3.882 5.043 5.006 5.003 7.16 5C7.19 4.98 7.22 4.959 7.25 4.936C7.517 4.732 7.709 4.476 7.792 4.253C7.83 4.139 7.858 4.053 7.89 3.974C8.08415 3.49116 8.41133 3.07333 8.83351 2.76904C9.25569 2.46475 9.75554 2.2865 10.275 2.255ZM14.819 4.818C14.843 4.88 14.869 4.94 14.899 5H9.101C9.13 4.94 9.156 4.88 9.181 4.818V4.815L9.186 4.805L9.191 4.793L9.196 4.781L9.199 4.771L9.201 4.766L9.205 4.754L9.209 4.742L9.211 4.736L9.214 4.728L9.216 4.721L9.218 4.715C9.257 4.599 9.269 4.562 9.281 4.534C9.36915 4.31442 9.51781 4.12437 9.7097 3.98594C9.90159 3.84751 10.1288 3.76639 10.365 3.752C10.397 3.75 10.437 3.75 10.58 3.75H13.418C13.561 3.75 13.601 3.75 13.633 3.752C14.115 3.782 14.537 4.086 14.718 4.534C14.728 4.562 14.741 4.597 14.78 4.715L14.782 4.721L14.784 4.728L14.787 4.736L14.789 4.742L14.793 4.754L14.797 4.766L14.799 4.771L14.803 4.781L14.807 4.793L14.812 4.805L14.816 4.815L14.818 4.818H14.819ZM14 12.5H10C9.86739 12.5 9.74021 12.5527 9.64645 12.6464C9.55268 12.7402 9.5 12.8674 9.5 13V15.162C9.50002 15.2619 9.52994 15.3594 9.58591 15.4421C9.64187 15.5248 9.72131 15.5889 9.814 15.626L10.514 15.906C11.4679 16.2877 12.5321 16.2877 13.486 15.906L14.186 15.626C14.2787 15.5889 14.3581 15.5248 14.4141 15.4421C14.4701 15.3594 14.5 15.2619 14.5 15.162V13C14.5 12.8674 14.4473 12.7402 14.3536 12.6464C14.2598 12.5527 14.1326 12.5 14 12.5ZM8.01 15.37L3.006 13.868C3.036 16.982 3.218 19.85 4.318 20.828C5.636 22 7.758 22 12 22C16.242 22 18.364 22 19.682 20.828C20.782 19.851 20.964 16.982 20.994 13.868L15.989 15.369C15.9513 15.7314 15.8154 16.0767 15.5958 16.3675C15.3762 16.6583 15.0813 16.8836 14.743 17.019L14.043 17.299C12.7315 17.8237 11.2685 17.8237 9.957 17.299L9.257 17.019C8.9187 16.8836 8.62383 16.6583 8.40424 16.3675C8.18464 16.0767 8.04867 15.7314 8.011 15.369L8.01 15.37Z" fill="black"/>
</svg>
