<svg width="28" height="28" viewBox="0 0 28 28" fill="none" xmlns="http://www.w3.org/2000/svg">
<mask id="mask0_154_301" style="mask-type:luminance" maskUnits="userSpaceOnUse" x="0" y="0" width="28" height="28">
<path d="M14 11.5C14.5745 11.5 15.1434 11.3868 15.6742 11.167C16.205 10.9471 16.6873 10.6248 17.0936 10.2186C17.4998 9.81234 17.8221 9.33004 18.042 8.79924C18.2618 8.26844 18.375 7.69953 18.375 7.125C18.375 6.55047 18.2618 5.98156 18.042 5.45076C17.8221 4.91996 17.4998 4.43766 17.0936 4.03141C16.6873 3.62515 16.205 3.30289 15.6742 3.08303C15.1434 2.86316 14.5745 2.75 14 2.75C12.8397 2.75 11.7269 3.21094 10.9064 4.03141C10.0859 4.85188 9.625 5.96468 9.625 7.125C9.625 8.28532 10.0859 9.39812 10.9064 10.2186C11.7269 11.0391 12.8397 11.5 14 11.5ZM2.75 24.5V25.25H25.25V24.5C25.25 21.7 25.25 20.3 24.705 19.23C24.2256 18.2892 23.4608 17.5244 22.52 17.045C21.45 16.5 20.05 16.5 17.25 16.5H10.75C7.95 16.5 6.55 16.5 5.48 17.045C4.53923 17.5244 3.77436 18.2892 3.295 19.23C2.75 20.3 2.75 21.7 2.75 24.5Z" fill="white" stroke="white" stroke-width="4" stroke-linecap="round" stroke-linejoin="round"/>
</mask>
<g mask="url(#mask0_154_301)">
<path d="M-1 -1H29V29H-1V-1Z" fill="black"/>
</g>
</svg>
